<?xml version="1.0" standalone="no"?>
<!DOCTYPE svg PUBLIC "-//W3C//DTD SVG 20010904//EN"
 "http://www.w3.org/TR/2001/REC-SVG-20010904/DTD/svg10.dtd">
<svg version="1.0" xmlns="http://www.w3.org/2000/svg"
 width="256.000000pt" height="256.000000pt" viewBox="0 0 256.000000 256.000000"
 preserveAspectRatio="xMidYMid meet">

<g transform="translate(0.000000,256.000000) scale(0.100000,-0.100000)"
fill="#000000" stroke="none">
<path d="M190 2551 c-69 -21 -130 -73 -166 -141 -18 -34 -19 -81 -19 -1130 0
-1049 1 -1096 19 -1130 26 -49 74 -98 121 -123 l40 -22 1095 0 1095 0 40 22
c47 25 95 74 121 123 18 34 19 81 19 1130 l0 1095 -22 40 c-25 47 -74 95 -123
121 -33 18 -83 19 -1115 21 -594 1 -1091 -2 -1105 -6z m1396 -461 c129 -33
218 -83 309 -175 141 -139 196 -289 197 -535 2 -284 -75 -503 -237 -678 -196
-212 -512 -306 -799 -238 -56 13 -61 13 -87 -6 -23 -18 -38 -20 -91 -16 -105
9 -147 42 -163 129 -5 29 -15 41 -47 59 -58 33 -157 117 -179 153 -23 38 -25
75 -4 83 13 5 182 -28 221 -43 8 -3 16 22 24 69 48 294 209 737 297 821 32 29
83 49 101 38 19 -11 42 -78 42 -120 0 -40 -36 -226 -84 -436 -31 -134 -65
-333 -68 -400 l-3 -49 65 -13 c36 -8 110 -14 165 -14 122 -2 183 18 270 89
150 121 232 301 242 537 11 249 -43 407 -171 492 -132 89 -280 82 -636 -32
-196 -63 -262 -70 -268 -27 -15 102 308 292 563 332 85 13 250 3 341 -20z"/>
</g>
</svg>
