<?xml version="1.0" standalone="no"?>
<!DOCTYPE svg PUBLIC "-//W3C//DTD SVG 20010904//EN"
 "http://www.w3.org/TR/2001/REC-SVG-20010904/DTD/svg10.dtd">
<svg version="1.0" xmlns="http://www.w3.org/2000/svg"
 width="500.000000pt" height="500.000000pt" viewBox="0 0 500.000000 500.000000"
 preserveAspectRatio="xMidYMid meet">
<metadata>
Created by potrace 1.14, written by Peter Selinger 2001-2017
</metadata>
<g transform="translate(0.000000,500.000000) scale(0.100000,-0.100000)"
fill="#000000" stroke="none">
<path d="M395 4981 c-76 -19 -165 -58 -165 -72 0 -5 -5 -9 -11 -9 -24 0 -127
-119 -158 -181 -32 -65 -38 -83 -49 -154 -9 -54 -8 -4098 1 -4153 12 -75 69
-183 128 -243 60 -61 129 -116 129 -103 0 5 4 4 8 -2 4 -7 39 -22 77 -35 l70
-24 2045 -3 c1442 -2 2058 1 2090 8 25 6 52 12 60 14 41 8 100 30 100 38 0 5
5 6 10 3 6 -3 10 -1 10 4 0 6 7 11 15 11 8 0 15 5 15 10 0 6 5 10 11 10 7 0
27 16 46 35 19 19 38 35 43 35 6 0 10 7 10 15 0 8 3 15 8 15 4 0 19 21 32 47
14 27 30 51 35 55 6 4 7 8 3 8 -4 0 -1 15 7 34 8 19 18 52 22 73 8 42 10 4123
1 4163 -20 98 -66 185 -132 254 -44 46 -135 116 -150 116 -2 0 -17 5 -33 12
-15 6 -35 13 -43 14 -8 1 -26 6 -40 11 -14 4 -947 9 -2075 10 -1930 2 -2054 1
-2120 -16z"/>
</g>
</svg>
