<?xml version="1.0" standalone="no"?>
<!DOCTYPE svg PUBLIC "-//W3C//DTD SVG 20010904//EN"
 "http://www.w3.org/TR/2001/REC-SVG-20010904/DTD/svg10.dtd">
<svg version="1.0" xmlns="http://www.w3.org/2000/svg"
 width="1024.000000pt" height="1024.000000pt" viewBox="0 0 1024.000000 1024.000000"
 preserveAspectRatio="xMidYMid meet">

<g transform="translate(0.000000,1024.000000) scale(0.100000,-0.100000)"
fill="#000000" stroke="none">
<path d="M4640 8674 c-25 -2 -112 -11 -195 -20 -752 -79 -1502 -404 -2110
-913 -138 -115 -358 -342 -478 -491 -285 -355 -520 -791 -664 -1230 -202 -621
-227 -1444 -63 -2100 71 -284 148 -487 291 -770 247 -491 587 -920 972 -1229
277 -223 655 -441 992 -574 491 -193 953 -281 1475 -281 633 0 1219 138 1755
413 350 180 601 358 889 631 194 185 453 503 595 731 83 133 236 436 288 569
127 325 195 590 245 951 30 220 32 680 4 919 -46 394 -132 732 -271 1060 -200
473 -486 894 -864 1270 -275 274 -527 454 -914 655 -330 171 -742 309 -1092
364 -213 34 -694 59 -855 45z m658 -608 c629 -98 1173 -337 1618 -712 210
-177 333 -306 497 -523 166 -217 271 -396 380 -641 162 -365 239 -685 274
-1144 14 -185 15 -244 5 -370 -35 -459 -151 -884 -352 -1291 -242 -492 -529
-828 -980 -1147 -685 -486 -1570 -683 -2425 -542 -259 43 -504 110 -741 204
-476 189 -970 544 -1252 898 -84 106 -221 305 -269 392 -131 237 -197 388
-273 622 -130 401 -178 724 -166 1123 6 235 22 387 56 555 92 458 243 819 498
1195 183 270 351 458 556 621 296 237 598 418 895 538 272 110 599 195 886
230 161 20 645 15 793 -8z"/>
<path d="M2734 7199 c-72 -22 -154 -89 -185 -151 -11 -22 -23 -72 -27 -111 -4
-40 -5 -1001 -2 -2137 l5 -2065 27 -47 c39 -65 111 -125 173 -143 44 -13 312
-15 2135 -13 l2085 3 51 27 c59 31 108 84 138 147 21 45 21 58 24 785 2 670 1
744 -14 789 -22 66 -90 138 -156 167 l-51 22 -1184 -2 c-651 0 -1235 2 -1298
6 l-115 7 -2 1281 -3 1281 -22 40 c-26 50 -65 86 -120 114 -42 21 -50 21 -720
20 -643 0 -681 -1 -739 -20z m806 -594 c5 -151 10 -165 64 -213 60 -52 136
-55 208 -7 60 40 71 72 77 225 l6 135 82 3 83 3 2 -356 3 -355 -188 0 c-178 0
-190 -1 -235 -24 -93 -47 -122 -165 -63 -257 46 -73 68 -79 290 -79 l191 0 0
-175 0 -175 -167 0 c-227 -1 -267 -12 -320 -90 -34 -49 -32 -142 2 -193 47
-69 78 -77 295 -77 l190 0 0 -165 0 -165 -182 0 c-237 -1 -278 -14 -319 -105
-39 -85 -11 -185 65 -230 42 -24 48 -25 239 -25 l197 0 0 -130 0 -130 215 0
215 0 0 -137 c0 -76 5 -155 10 -175 32 -115 173 -164 266 -93 62 47 74 89 74
258 l0 147 150 0 150 0 0 -137 c0 -153 9 -198 46 -242 32 -39 102 -65 150 -58
58 10 113 52 136 104 18 41 20 62 17 187 l-4 141 271 3 272 2 3 -163 c4 -155
5 -165 29 -200 29 -43 91 -77 140 -77 54 0 117 36 145 84 24 41 25 51 25 199
l0 157 155 0 155 0 0 -505 0 -505 -439 0 -439 0 -1 126 c-2 133 -9 160 -53
201 -52 48 -143 58 -198 20 -68 -46 -75 -64 -78 -213 l-4 -134 -164 0 -164 0
0 113 c0 128 -15 174 -69 220 -40 33 -69 41 -128 34 -55 -6 -90 -31 -120 -83
-20 -34 -23 -53 -23 -161 l0 -123 -299 0 -299 0 -4 134 c-3 117 -6 138 -24
162 -35 47 -70 67 -127 72 -68 5 -125 -22 -158 -75 -21 -34 -24 -53 -27 -165
l-4 -128 -412 -2 c-227 -2 -420 -2 -429 0 -15 3 -17 28 -17 253 l0 249 98 0
c53 0 113 5 132 10 64 18 130 108 130 177 -1 63 -62 149 -123 172 -16 6 -75
11 -133 11 l-104 0 0 525 0 525 107 0 c126 0 179 19 218 79 46 70 42 147 -13
220 -40 53 -90 71 -209 71 l-103 0 0 185 0 185 93 0 c111 0 157 12 201 51 72
63 82 160 26 238 -46 62 -78 75 -207 79 l-113 4 0 349 0 349 183 3 c100 1 220
3 267 2 l85 0 5 -140z"/>
<path d="M5623 6956 c-952 -700 -1216 -897 -1220 -912 -5 -14 215 -178 239
-178 9 -1 117 74 240 165 123 91 329 244 458 339 129 95 280 206 334 247 99
73 99 73 125 56 14 -9 114 -82 221 -161 107 -80 265 -197 350 -260 85 -64 235
-176 332 -249 98 -73 184 -136 192 -139 15 -6 255 165 255 181 0 6 -42 40 -92
77 -51 36 -164 120 -252 185 -88 66 -186 138 -217 161 l-58 43 0 203 c0 126
-4 206 -10 208 -5 2 -86 2 -180 0 l-170 -3 0 -64 c0 -36 -4 -65 -8 -65 -5 0
-29 15 -53 33 -24 19 -96 71 -159 117 -63 46 -128 94 -145 106 l-30 22 -152
-112z"/>
<path d="M5283 6147 c-265 -199 -484 -366 -486 -372 -2 -5 -1 -261 1 -568 l4
-557 307 2 306 3 5 475 5 475 343 2 c188 1 349 0 357 -3 13 -5 15 -70 15 -480
l0 -474 310 0 310 0 0 558 0 558 -27 25 c-16 14 -82 66 -148 116 -220 165
-488 367 -644 486 -85 64 -159 117 -165 117 -6 -1 -228 -164 -493 -363z"/>
</g>
</svg>
